# xmcd
#
# Track frame offsets:
#	150
#	14176
#	31369
#	47531
#	59983
#	76885
#	94152
#	113208
#	132879
#	151422
#	162987
#	178670
#	191648
#	207480
#	226134
#	241892
#	257227
#	282407
#
# Disc length: 3780 seconds
#
# Revision: 1
# Processed by: cddbd v1.5.2PL0 Copyright (c) Steve Scherf et al.
# Submitted via: audiograbber 1.83.01
#
DISCID=040ec212
DTITLE=Chartbusters - Country 500 vol.1 d.13 8532-13
DYEAR=1900
DGENRE=karaoke
TTITLE0=Hank Williams Jr. - All My Rowdy Friends Are Coming Over Tonight
TTITLE1=The Oakridge boys - Elvira
TTITLE2=Shelly West and David Frizzell - You're the Reason God Made Oklahoma
TTITLE3=Ronnie McDowell - Older Women
TTITLE4=T.G. Shepard - Party time
TTITLE5=Eddie Rabbitt and Crystal Gayle - you and I
TTITLE6=Alabama - Mountain Music
TTITLE7=David Frizzell - I'm gonna hire a wino
TTITLE8=Brenda Lee - Break it to me Gently
TTITLE9=The Oakridge Boys - Bobbi Sue
TTITLE10=Ricky Scaggs - Heartbroke
TTITLE11=Ronnie McDowell - Watching girls go by
TTITLE12=Sylvia - Nobody
TTITLE13=Willie Nelson - Always on my mind
TTITLE14=David Allen Coe - The Ride
TTITLE15=Earl Thomas Conley - Holding Her and Loving You
TTITLE16=Mel McDaniel - Baby's Got Her Blue Jeans On
TTITLE17=data - Track
EXTD=
EXTT0=
EXTT1=
EXTT2=
EXTT3=
EXTT4=
EXTT5=
EXTT6=
EXTT7=
EXTT8=
EXTT9=
EXTT10=
EXTT11=
EXTT12=
EXTT13=
EXTT14=
EXTT15=
EXTT16=
EXTT17=
PLAYORDER=
